inDegrees=no
num_controls=7
num_derivatives=13
num_iterations=128
num_multipliers=7
num_parameters=0
num_slacks=7
num_states=26
objective=5.024976
objective_accelerations=0.703774
objective_balance=0.081713
objective_effort=0.695973
objective_height=3.450178
objective_ligament=0.093337
solver_duration=1362.691378
status=Solve_Succeeded
success=true
DataType=double
version=3
OpenSimVersion=4.4-2022-07-23-0e9fedc
endheader
time	/jointset/ground_pelvis/pelvis_tilt/value	/jointset/ground_pelvis/pelvis_tx/value	/jointset/ground_pelvis/pelvis_ty/value	/jointset/hip_l/hip_flexion_l/value	/jointset/hip_l/hip_adduction_l/value	/jointset/hip_l/hip_rotation_l/value	/jointset/back/lumbar_extension/value	/jointset/patellofemoral_l/patellar_flexion_l/value	/jointset/knee_l/knee_flexion_l/value	/jointset/knee_l/knee_adduction_l/value	/jointset/knee_l/knee_rotation_l/value	/jointset/ankle_l/ankle_angle_l/value	/jointset/subtalar_l/subtalar_angle_l/value	/jointset/ground_pelvis/pelvis_tilt/speed	/jointset/ground_pelvis/pelvis_tx/speed	/jointset/ground_pelvis/pelvis_ty/speed	/jointset/hip_l/hip_flexion_l/speed	/jointset/hip_l/hip_adduction_l/speed	/jointset/hip_l/hip_rotation_l/speed	/jointset/back/lumbar_extension/speed	/jointset/patellofemoral_l/patellar_flexion_l/speed	/jointset/knee_l/knee_flexion_l/speed	/jointset/knee_l/knee_adduction_l/speed	/jointset/knee_l/knee_rotation_l/speed	/jointset/ankle_l/ankle_angle_l/speed	/jointset/subtalar_l/subtalar_angle_l/speed	/forceset/tau_hip_flexion_l	/forceset/tau_hip_adduction_l	/forceset/tau_hip_rotation_l	/forceset/tau_knee_flexion_l	/forceset/tau_ankle_angle_l	/forceset/tau_subtalar_angle_l	/forceset/tau_lumbar_extension	lambda_cid13_p0	lambda_cid13_p1	lambda_cid13_p2	lambda_cid13_p3	lambda_cid13_p4	lambda_cid13_p5	lambda_cid14_p0	/jointset/ground_pelvis/pelvis_tilt/accel	/jointset/ground_pelvis/pelvis_tx/accel	/jointset/ground_pelvis/pelvis_ty/accel	/jointset/hip_l/hip_flexion_l/accel	/jointset/hip_l/hip_adduction_l/accel	/jointset/hip_l/hip_rotation_l/accel	/jointset/back/lumbar_extension/accel	/jointset/patellofemoral_l/patellar_flexion_l/accel	/jointset/knee_l/knee_flexion_l/accel	/jointset/knee_l/knee_adduction_l/accel	/jointset/knee_l/knee_rotation_l/accel	/jointset/ankle_l/ankle_angle_l/accel	/jointset/subtalar_l/subtalar_angle_l/accel	gamma_cid13_p0	gamma_cid13_p1	gamma_cid13_p2	gamma_cid13_p3	gamma_cid13_p4	gamma_cid13_p5	gamma_cid14_p0
1.5	-0.06700525566506856	-0.04022316237921752	0.7442674788183551	1.103317395042963	-0.3265756201521303	-0.01241109796857967	-0.8477423894384819	1.213824567344206	1.213824567344336	-0.04885047009356876	-0.1744222275010849	0.2656735052349888	0.06244213513884674	0.4503682281397765	0.2022350063842785	0.8873136006240727	-3.086985443367296	0.00632315237584401	-0.9125185420223022	0.7562724233082535	-3.026638653540476	-3.026638653540513	-0.2500078106307494	1.127430587482948e-05	-0.5873249867640606	-0.2314912042021699	-0.2729515442275446	0.01583443069358905	-0.006222236589054608	-0.2949599129886408	0.05970843377617546	0.03482039110097233	0.3360524035558122	-22.28900824206013	-11.28215684713089	1.415544110256655	-14.7744312592991	-668.1235755446345	-65.4416960601519	-0.7919020620488013	0.8587753142386686	1.183895928933108	-0.8789102780335909	-1.488994854566769	0.9317890156696784	-0.4964407853542911	2.896761300602827	-2.504769216663597	-2.504769216663566	-0.1080066010519668	0.05007445058888243	-1.944145251616139	0.610759106267264	8.205267033125541e-07	1.981010279096448e-06	-4.247117143094617e-06	-1.259985869952183e-07	8.835326123532448e-07	-1.043681158120873e-06	9.024351370915911e-07
1.51	-0.06245917461304312	-0.03814154615891513	0.7530946151758875	1.072375496087914	-0.3264677789404007	-0.02155925601309577	-0.8400358646437101	1.183436371986792	1.183436371986762	-0.05136065019926288	-0.1744224749616337	0.2597041772718258	0.06015549055584424	0.4587299097265102	0.2140897597125475	0.8778978020265198	-3.101034268505356	0.01524503623182936	-0.9170509639406865	0.7849976502838973	-3.050601516232937	-3.050601516232939	-0.2520648119590436	-5.228732164801929e-05	-0.6063576035918496	-0.2257733441901021	-0.2627095246745184	0.01597061736854533	-0.006631621631718889	-0.2873410080255362	0.06094464285735564	0.03555144890897119	0.3260640619478756	-21.26644166370371	-11.95408765583766	1.723001837184979	-15.16435268290624	-658.5056256091975	-65.49206882649253	-1.288683644286802	0.8072334687566061	1.186475626050652	-1.005104437166022	-1.308716429157063	0.8727411484324321	-0.4214847803748878	2.855170591588323	-2.28238896341574	-2.282388963410487	-0.2595208827958622	-0.03408556254545356	-1.855247433254894	0.5620404458776755	8.498717895202781e-07	2.279909588322061e-06	-4.11716108745148e-06	-1.012960132939992e-07	9.291891566674974e-07	-6.591452481662659e-07	8.989276658379521e-07
1.52	-0.05783300296757674	-0.03594134028707482	0.7618211555901345	1.041303930864333	-0.3262706482745374	-0.03075070665387662	-0.8320431341400725	1.152820479168883	1.152820479168686	-0.05389239511505561	-0.1744232608570501	0.2535500376334039	0.05792797277240253	0.4663863468278835	0.2259529366918636	0.8671944119669782	-3.112918697072677	0.02418104320261684	-0.921177061270849	0.8135135650812687	-3.072178145640533	-3.072178145640499	-0.2543207726504514	-9.641267407328803e-05	-0.6242873218154237	-0.2196658442899884	-0.2524675051215191	0.01610680404342711	-0.007041006674340575	-0.2797221030624354	0.06218085193851919	0.03628250671686587	0.3160757203399261	-20.24158727913329	-12.63773848171742	2.045261905313645	-15.621298836928	-648.8452275417551	-65.66176284479521	-1.90186035869672	0.7177264171665909	1.185580659142531	-1.13642857043135	-1.056115540419153	0.9346136386301316	-0.4151758677098764	2.854898864948273	-2.027522559690536	-2.027522559690455	-0.1477984736746689	0.05396170560856082	-1.723565530773215	0.6886870838765031	8.955933133306228e-07	2.479168474661285e-06	-4.185094085019359e-06	-1.090111539254144e-07	9.99155058571773e-07	-3.578819845568732e-07	9.111813912048013e-07
1.53	-0.0531337339413954	-0.03362262652348069	0.7704343028804858	1.010124330227639	-0.3259841448751746	-0.03998180796649069	-0.823766730525936	1.122000888800767	1.122000888800554	-0.05644746854890801	-0.1744244392152343	0.2472221678622616	0.0557633929817721	0.4733456041899943	0.237773902007261	0.8552236983493074	-3.122610783988551	0.03312623814760227	-0.9250392956359874	0.8416987278781004	-3.091305284039028	-3.091305284038983	-0.2566601462394926	-0.0001504307605695186	-0.6410885601418699	-0.2131776310795557	-0.2421992372838541	0.01646858963007779	-0.007432275285789913	-0.2719896015093739	0.06294046744127878	0.03653337723471437	0.3058635889431214	-19.40648904504438	-13.04633230158728	2.285644306834223	-15.70669212211191	-639.2080368251262	-65.33384838099842	-2.627482994693519	0.6668326049809877	1.177932616678049	-1.258865673803687	-0.8670498520955785	0.8758797947052818	-0.3702469153141469	2.790060506743583	-1.790304029761982	-1.790304029760257	-0.2714345755135316	-0.03764910428448143	-1.628562113181207	0.6398818049032795	9.587148020937521e-07	2.572559411683721e-06	-4.463284201623943e-06	-1.511701160352531e-07	1.094949652915448e-06	-1.450959076892698e-07	9.401813879809192e-07
